<?xml version="1.0" encoding="utf-8"?>
<!-- Generator: Adobe Illustrator 17.0.0, SVG Export Plug-In . SVG Version: 6.00 Build 0)  -->
<!DOCTYPE svg PUBLIC "-//W3C//DTD SVG 1.1//EN" "http://www.w3.org/Graphics/SVG/1.1/DTD/svg11.dtd">
<svg version="1.1" id="Layer_1" xmlns="http://www.w3.org/2000/svg" xmlns:xlink="http://www.w3.org/1999/xlink" x="0px" y="0px"
	 width="160px" height="220px" viewBox="0 0 160 220" enable-background="new 0 0 160 220" xml:space="preserve">
<path fill="none" stroke="#3D3C3E" stroke-width="9.3217" stroke-miterlimit="10" d="M46.507,13.928
	c0-2.141,15.134-3.881,33.802-3.881s33.802,1.735,33.802,3.881"/>
<path fill="none" stroke="#565556" stroke-width="9.3217" stroke-miterlimit="10" d="M114.108,13.928
	c0,2.141-15.134,3.881-33.802,3.881s-33.802-1.735-33.802-3.881"/>
<path fill="#565556" d="M48.179,13.928c-2.035-0.285-1.455,3.721-3.247,3.721c-1.794,0-2.811-1.679-3.042-3.721
	c-0.241-2.136,1.572-4.167,3.384-5.042C56.856,13.683,58.93,15.433,48.179,13.928z"/>
<path fill="#565556" d="M118.759,13.829c0,1.846-2.497,2.417-4.648,2.417s-3.896-1.496-3.896-3.342s-0.148-1.804,3.107-3.231
	c1.391-0.609,1.227-1.077,1.719-0.906C117.65,9.673,118.759,12.289,118.759,13.829z"/>
<circle fill="#D3D3D3" cx="117.041" cy="80.246" r="1.176"/>
<path fill="none" stroke="#4F4F4F" stroke-width="5" stroke-miterlimit="10" d="M114.111,13.928l38.396,184.939
	c0,7.142-5.011,12.935-11.197,12.935H18.166c-6.183,0-11.197-5.788-11.197-12.935L46.507,13.928"/>
<g>
	<g>
		<g>
			<path fill="#D3D3D3" d="M106.635,33.69c2.44,12.898,4.88,25.796,7.32,38.694c0.269,1.425,2.438,0.82,2.17-0.598
				c-2.44-12.898-4.88-25.796-7.32-38.694C108.536,31.668,106.367,32.273,106.635,33.69L106.635,33.69z"/>
		</g>
	</g>
</g>
</svg>
