<?xml version="1.0" encoding="utf-8"?>
<!-- Generator: Adobe Illustrator 17.0.0, SVG Export Plug-In . SVG Version: 6.00 Build 0)  -->
<!DOCTYPE svg PUBLIC "-//W3C//DTD SVG 1.1//EN" "http://www.w3.org/Graphics/SVG/1.1/DTD/svg11.dtd">
<svg version="1.1" id="Layer_1" xmlns="http://www.w3.org/2000/svg" xmlns:xlink="http://www.w3.org/1999/xlink" x="0px" y="0px"
	 width="145px" height="150px" viewBox="0 0 145 150" enable-background="new 0 0 145 150" xml:space="preserve">
<path opacity="0.5" fill="#3D3C3E" d="M128.407,84.856c-0.075-4.419,1.741-8.574,1.689-12.936c0-0.041-0.004-0.082-0.004-0.122
	l-3.455-14.993c-0.018-0.064-0.035-0.126-0.053-0.189c-0.005-0.078-0.02-0.154-0.026-0.232c-2.465-5.371-6.046-9.825-10.573-13.519
	c-0.029,0.04-0.063,0.075-0.09,0.115c-1.475-0.47-3.042-0.734-4.673-0.734c-4.972,0-9.382,2.364-12.201,6.019h-0.822
	c-2.736-2.48-6.355-4.004-10.338-4.004c-3.966,0-7.57,1.511-10.302,3.971c-2.805-2.922-6.742-4.749-11.113-4.749
	c-3.809,0-7.289,1.389-9.98,3.678c-2.556-1.882-5.703-3.008-9.121-3.008c-3.368,0-6.473,1.092-9.009,2.925
	c-1.908-2.016-4.356-3.501-7.109-4.254c-4.647,7.261-13.479,12.485-14.94,21.266c-1.04,6.246-0.255,12.432,0.202,18.688
	c0.393,5.368,0.557,10.726,1.826,15.988c2.4,9.955,7.263,19.271,15.301,25.837c7.463,6.096,16.89,12.423,26.56,15.296h7.662
	c0.151-0.294,0.426-0.523,0.853-0.531c8.542-0.161,16.661-2.624,24.894-4.661c7.749-1.917,12.597-7.563,18.881-11.976
	c7.751-5.444,12.266-11.345,15.636-20.124c0.766-1.994,1.611-3.975,2.451-5.962C128.987,92.67,128.453,87.601,128.407,84.856z"/>
<circle opacity="0.5" fill="#3D3C3E" cx="77.486" cy="14.566" r="5.342"/>
<circle opacity="0.5" fill="#3D3C3E" cx="48.748" cy="39.06" r="5.166"/>
</svg>
