<?xml version="1.0" encoding="utf-8"?>
<!-- Generator: Adobe Illustrator 17.0.0, SVG Export Plug-In . SVG Version: 6.00 Build 0)  -->
<!DOCTYPE svg PUBLIC "-//W3C//DTD SVG 1.1//EN" "http://www.w3.org/Graphics/SVG/1.1/DTD/svg11.dtd">
<svg version="1.1" id="Layer_1" xmlns="http://www.w3.org/2000/svg" xmlns:xlink="http://www.w3.org/1999/xlink" x="0px" y="0px"
	 width="145px" height="150px" viewBox="0 0 145 150" enable-background="new 0 0 145 150" xml:space="preserve">
<path opacity="0.5" fill="#3D3C3E" d="M130.449,70.599c-0.471-1.92-0.567-2.465-0.971-4.503c-1.266-6.385-2.806-12.232-2.806-12.232
	c-2.739-2.571-6.425-4.146-10.478-4.146c-4.382,0-8.323,1.85-11.115,4.8c-2.519-1.82-5.604-2.905-8.95-2.905
	c-3.395,0-6.521,1.118-9.06,2.988c-2.672-2.274-6.13-3.654-9.914-3.654c-4.342,0-8.253,1.815-11.039,4.717
	c-2.714-2.444-6.294-3.945-10.234-3.945c-3.957,0-7.552,1.514-10.27,3.977h-0.817c-2.8-3.63-7.181-5.979-12.121-5.979
	c-1.621,0-3.177,0.262-4.642,0.729c-0.953-1.413-2.569-2.342-4.402-2.342c-2.931,0-5.307,2.376-5.307,5.307
	c0,1.362,0.528,2.592,1.372,3.532c-1.291,2.073-2.109,4.471-2.282,7.049c-0.018,0.063-0.034,0.124-0.052,0.188L0.48,137.424
	c0,5.137,4.477,9.302,10,9.302h124.04c5.523,0,10-4.165,10-9.302L130.449,70.599z"/>
<circle opacity="0.5" fill="#3D3C3E" cx="44.647" cy="10.376" r="5.307"/>
<circle opacity="0.5" fill="#3D3C3E" cx="94.735" cy="46.551" r="5.132"/>
</svg>
