<?xml version="1.0" encoding="utf-8"?>
<!-- Generator: Adobe Illustrator 17.0.0, SVG Export Plug-In . SVG Version: 6.00 Build 0)  -->
<!DOCTYPE svg PUBLIC "-//W3C//DTD SVG 1.1//EN" "http://www.w3.org/Graphics/SVG/1.1/DTD/svg11.dtd">
<svg version="1.1" id="Layer_1" xmlns="http://www.w3.org/2000/svg" xmlns:xlink="http://www.w3.org/1999/xlink" x="0px" y="0px"
	 width="705px" height="700px" viewBox="0 0 705 700" enable-background="new 0 0 705 700" xml:space="preserve">
<rect x="39.209" y="96.17" fill="#3D3C3E" width="11.156" height="387.161"/>
<path fill="none" stroke="#FC0303" stroke-width="1.6736" stroke-miterlimit="10" d="M191.507,476.392"/>
<path fill="#3D3C3E" d="M186.092,473.171"/>
<path fill="#3D3C3E" d="M46.598,468.522"/>
<rect x="45.631" y="409.362" fill="#3D3C3E" width="174.946" height="5.497"/>
<rect x="23.055" y="474.481" fill="#3D3C3E" width="193.432" height="10.564"/>
<polygon fill="#3D3C3E" points="151.419,483.958 131.648,483.958 135.977,465.558 147.017,465.558 "/>
<path fill="#3D3C3E" d="M143.666,460.032c0,0-18.39,1.802-13.739-16.82c3.518-14.083,11.651-23.432,11.651-23.432
	s-1.439,13.626,7.701,25.755C160.863,460.905,143.666,460.032,143.666,460.032z"/>
<rect x="23.207" y="141.125" fill="#3D3C3E" width="7.53" height="18.756"/>
<rect x="29.475" y="146.286" fill="#3D3C3E" width="101.428" height="7.95"/>
<ellipse fill="#1C191A" cx="26.972" cy="141.125" rx="3.752" ry="1.093"/>
<ellipse fill="#3D3C3E" cx="26.972" cy="159.881" rx="3.752" ry="1.093"/>
<ellipse fill="#1C191A" cx="139.349" cy="141.013" rx="8.67" ry="1.091"/>
<ellipse fill="#3D3C3E" cx="139.349" cy="159.883" rx="8.773" ry="1.091"/>
<path fill="none" stroke="#3D3C3E" stroke-width="9.3217" stroke-miterlimit="10" d="M109.323,208.881
	c0-2.141,15.134-3.881,33.802-3.881s33.802,1.735,33.802,3.881"/>
<path fill="none" stroke="#565556" stroke-width="9.3217" stroke-miterlimit="10" d="M176.924,208.881
	c0,2.141-15.134,3.881-33.802,3.881s-33.802-1.735-33.802-3.881"/>
<path fill="#565556" d="M110.995,208.881c-2.035-0.285-1.455,3.721-3.247,3.721c-1.794,0-2.811-1.678-3.042-3.721
	c-0.241-2.136,1.572-4.167,3.384-5.042C119.672,208.635,121.746,210.386,110.995,208.881z"/>
<path fill="#565556" d="M181.575,208.782c0,1.846-2.497,2.417-4.648,2.417s-3.896-1.496-3.896-3.342
	c0-1.846-0.148-1.804,3.107-3.231c1.391-0.609,1.227-1.077,1.719-0.906C180.466,204.626,181.575,207.241,181.575,208.782z"/>
<circle opacity="0.5" fill="#3D3C3E" cx="113.953" cy="269.329" r="5.307"/>
<circle fill="#D3D3D3" cx="179.857" cy="275.198" r="1.176"/>
<circle opacity="0.5" fill="#3D3C3E" cx="164.04" cy="305.503" r="5.132"/>
<path fill="none" stroke="#4F4F4F" stroke-width="5" stroke-miterlimit="10" d="M176.927,208.881l38.396,184.939
	c0,7.142-5.011,12.935-11.197,12.935H80.982c-6.183,0-11.197-5.788-11.197-12.935l39.537-184.939"/>
<g>
	<g>
		<g>
			<path fill="#D3D3D3" d="M169.451,228.643c2.44,12.898,4.88,25.796,7.32,38.694c0.269,1.425,2.438,0.82,2.17-0.598
				c-2.44-12.898-4.88-25.796-7.32-38.694C171.352,226.62,169.183,227.225,169.451,228.643L169.451,228.643z"/>
		</g>
	</g>
</g>
<circle fill="#D3D3D3" cx="289.117" cy="160.148" r="1.176"/>
<g>
	<g>
		<g>
			<path fill="#D3D3D3" d="M287.544,112.377c-0.001,13.127-0.002,26.254-0.002,39.38c0,1.451,2.25,1.451,2.25,0
				c0.001-13.127,0.002-26.254,0.002-39.38C289.795,110.926,287.545,110.926,287.544,112.377L287.544,112.377z"/>
		</g>
	</g>
</g>
<path fill="#636366" d="M144.118,334.285v-19.419V111.78V92.356h-9.615v19.424v203.086v19.419c0,0.002-0.004,0.003-0.004,0.005
	c0,0.31,2.154,0.562,4.812,0.562s4.812-0.252,4.812-0.562C144.122,334.288,144.118,334.286,144.118,334.285z M136.18,94.93h6.127
	v6.127h-6.127V94.93z M136.18,104.98h6.127v6.127h-6.127V104.98z M136.18,114.742h6.127v5.739h-6.127V114.742z M136.18,124.792
	h6.127v5.739h-6.127V124.792z M136.18,135.127h6.127v5.167h-6.127V135.127z M136.18,145.176h6.127v5.167h-6.127V145.176z
	 M136.18,154.939h6.127v5.739h-6.127V154.939z M136.18,164.988h6.127v5.739h-6.127V164.988z M136.18,175.323h6.127v5.167h-6.127
	V175.323z M136.18,185.371h6.127v5.168h-6.127V185.371z M136.18,195.135h6.127v5.739h-6.127V195.135z M136.18,205.183h6.127v5.739
	h-6.127V205.183z M136.18,215.52h6.127v5.167h-6.127V215.52z M136.18,225.568h6.127v5.167h-6.127V225.568z M136.18,235.33h6.127
	v5.741h-6.127V235.33z M136.18,245.38h6.127v5.739h-6.127V245.38z M136.18,255.43h6.127v5.452h-6.127V255.43z M136.18,265.477h6.127
	v5.454h-6.127V265.477z M136.18,275.814h6.127v5.167h-6.127V275.814z M136.18,285.862h6.127v5.167h-6.127V285.862z M136.18,295.626
	h6.127v5.739h-6.127V295.626z M136.18,305.674h6.127v5.739h-6.127V305.674z M136.18,315.05h6.127v6.127h-6.127V315.05z
	 M136.18,325.098h6.127v6.127h-6.127V325.098z"/>
<rect x="130.563" y="140.883" fill="#3D3C3E" width="17.572" height="18.756"/>
<ellipse fill="#1C191A" cx="44.787" cy="96.17" rx="5.536" ry="1.091"/>
<rect x="523.531" y="96.17" fill="#3D3C3E" width="11.156" height="387.161"/>
<path fill="none" stroke="#FC0303" stroke-width="1.6736" stroke-miterlimit="10" d="M382.389,476.392"/>
<path fill="#3D3C3E" d="M387.804,473.171"/>
<path fill="#3D3C3E" d="M527.298,468.522"/>
<rect x="353.319" y="409.362" fill="#3D3C3E" width="174.946" height="5.497"/>
<rect x="357.409" y="474.481" fill="#3D3C3E" width="193.432" height="10.564"/>
<polygon fill="#3D3C3E" points="422.477,483.958 442.248,483.958 437.919,465.558 426.879,465.558 "/>
<path fill="#3D3C3E" d="M430.23,460.032c0,0,18.39,1.802,13.739-16.82c-3.518-14.083-11.651-23.432-11.651-23.432
	s1.439,13.626-7.701,25.755C413.033,460.905,430.23,460.032,430.23,460.032z"/>
<rect x="543.159" y="141.125" fill="#3D3C3E" width="7.53" height="18.756"/>
<rect x="442.993" y="146.286" fill="#3D3C3E" width="101.428" height="7.95"/>
<ellipse fill="#1C191A" cx="546.924" cy="141.125" rx="3.752" ry="1.093"/>
<ellipse fill="#3D3C3E" cx="546.924" cy="159.881" rx="3.752" ry="1.093"/>
<ellipse fill="#1C191A" cx="434.547" cy="141.013" rx="8.67" ry="1.091"/>
<ellipse fill="#3D3C3E" cx="434.547" cy="159.883" rx="8.773" ry="1.091"/>
<path fill="none" stroke="#3D3C3E" stroke-width="9.3217" stroke-miterlimit="10" d="M396.969,208.881
	c0-2.146,15.134-3.881,33.802-3.881c18.668,0,33.802,1.739,33.802,3.881"/>
<path fill="none" stroke="#565556" stroke-width="9.3217" stroke-miterlimit="10" d="M464.576,208.881
	c0,2.146-15.134,3.881-33.802,3.881c-18.668,0-33.802-1.739-33.802-3.881"/>
<path fill="#565556" d="M465.805,203.839c1.812,0.875,3.625,2.906,3.384,5.042c-0.23,2.042-1.247,3.721-3.042,3.721
	c-1.792,0-1.211-4.006-3.247-3.721C452.15,210.386,454.224,208.635,465.805,203.839z"/>
<path fill="#565556" d="M392.321,208.782c0,1.846,2.497,2.417,4.648,2.417c2.152,0,3.896-1.496,3.896-3.342
	c0-1.846,0.148-1.804-3.107-3.231c-1.391-0.609-1.227-1.077-1.719-0.906C393.43,204.626,392.321,207.241,392.321,208.782z"/>
<path opacity="0.5" fill="#3D3C3E" d="M374.142,329.551c0.471-1.92,0.567-2.465,0.971-4.503c1.266-6.385,2.806-12.232,2.806-12.232
	c2.739-2.571,6.425-4.146,10.478-4.146c4.382,0,8.323,1.85,11.115,4.8c2.519-1.82,5.604-2.905,8.95-2.905
	c3.395,0,6.521,1.118,9.06,2.988c2.672-2.274,6.13-3.654,9.914-3.654c4.342,0,8.253,1.815,11.039,4.717
	c2.714-2.444,6.294-3.945,10.234-3.945c3.957,0,7.552,1.514,10.27,3.977h0.817c2.8-3.63,7.181-5.979,12.121-5.979
	c1.621,0,3.177,0.262,4.642,0.729c0.953-1.413,2.569-2.342,4.402-2.342c2.931,0,5.307,2.376,5.307,5.307
	c0,1.362-0.528,2.592-1.372,3.532c1.291,2.073,2.109,4.471,2.282,7.049c0.018,0.063,0.034,0.124,0.052,0.188l16.881,73.245
	c0,5.137-4.477,9.302-10,9.302h-124.04c-5.523,0-10-4.165-10-9.302L374.142,329.551z"/>
<circle opacity="0.5" fill="#3D3C3E" cx="459.943" cy="269.329" r="5.307"/>
<circle fill="#D3D3D3" cx="394.039" cy="275.198" r="1.176"/>
<circle opacity="0.5" fill="#3D3C3E" cx="409.856" cy="305.503" r="5.132"/>
<path opacity="0.5" fill="#3D3C3E" d="M355.656,248.827c-0.075-4.39,1.73-8.518,1.678-12.85c0-0.04-0.004-0.081-0.004-0.121
	l-3.433-14.894c-0.018-0.064-0.035-0.125-0.052-0.188c-0.005-0.078-0.02-0.153-0.026-0.231c-2.448-5.335-6.006-9.761-10.503-13.429
	c-0.029,0.039-0.062,0.074-0.089,0.114c-1.465-0.467-3.022-0.729-4.642-0.729c-4.94,0-9.321,2.349-12.121,5.979h-0.817
	c-2.718-2.464-6.313-3.977-10.27-3.977c-3.94,0-7.52,1.501-10.234,3.945c-2.787-2.903-6.698-4.717-11.039-4.717
	c-3.784,0-7.241,1.379-9.914,3.654c-2.539-1.87-5.665-2.988-9.06-2.988c-3.345,0-6.431,1.085-8.95,2.905
	c-1.895-2.003-4.327-3.477-7.062-4.226c-4.616,7.213-13.39,12.403-14.842,21.126c-1.033,6.204-0.254,12.35,0.201,18.565
	c0.39,5.332,0.554,10.655,1.814,15.882c2.384,9.89,7.215,19.143,15.2,25.667c7.413,6.056,16.778,12.341,26.384,15.195h7.612
	c0.15-0.292,0.423-0.519,0.848-0.527c8.486-0.16,16.551-2.607,24.729-4.63c7.697-1.904,12.514-7.513,18.757-11.897
	c7.7-5.408,12.185-11.271,15.532-19.991c0.761-1.981,1.6-3.949,2.435-5.922C356.233,256.589,355.703,251.553,355.656,248.827z"/>
<path opacity="0.5" fill="#3D3C3E" d="M249.325,215.966c2.632-2.994,5.463-5.889,7.672-9.31c-0.36-0.045-0.719-0.093-1.086-0.113
	c-1.43,1.521-3.009,2.99-4.537,4.491C250.955,212.792,250.227,214.421,249.325,215.966z"/>
<circle opacity="0.5" fill="#3D3C3E" cx="305.072" cy="179" r="5.307"/>
<circle opacity="0.5" fill="#3D3C3E" cx="276.523" cy="203.333" r="5.132"/>
<path fill="none" stroke="#4F4F4F" stroke-width="5" stroke-miterlimit="10" d="M464.573,208.881l39.537,184.939
	c0,7.146-5.014,12.935-11.197,12.935H369.77c-6.186,0-11.197-5.793-11.197-12.935l38.396-184.939"/>
<g>
	<g>
		<g>
			<path fill="#D3D3D3" d="M397.125,267.337c2.44-12.898,4.88-25.796,7.32-38.694c0.268-1.418-1.9-2.023-2.17-0.598
				c-2.44,12.898-4.88,25.796-7.32,38.694C394.687,268.157,396.855,268.762,397.125,267.337L397.125,267.337z"/>
		</g>
	</g>
</g>
<path fill="#636366" d="M429.774,334.29c0,0.31,2.154,0.562,4.812,0.562s4.812-0.252,4.812-0.562c0-0.002-0.004-0.003-0.004-0.005
	v-19.419V111.78V92.356h-9.615v19.424v203.086v19.419C429.778,334.286,429.774,334.288,429.774,334.29z M437.716,101.057h-6.127
	V94.93h6.127V101.057z M437.716,111.107h-6.127v-6.127h6.127V111.107z M437.716,120.481h-6.127v-5.739h6.127V120.481z
	 M437.716,130.531h-6.127v-5.739h6.127V130.531z M437.716,140.293h-6.127v-5.167h6.127V140.293z M437.716,150.343h-6.127v-5.167
	h6.127V150.343z M437.716,160.678h-6.127v-5.739h6.127V160.678z M437.716,170.727h-6.127v-5.739h6.127V170.727z M437.716,180.49
	h-6.127v-5.167h6.127V180.49z M437.716,190.54h-6.127v-5.168h6.127V190.54z M437.716,200.874h-6.127v-5.739h6.127V200.874z
	 M437.716,210.922h-6.127v-5.739h6.127V210.922z M437.716,220.687h-6.127v-5.167h6.127V220.687z M437.716,230.734h-6.127v-5.167
	h6.127V230.734z M437.716,241.071h-6.127v-5.741h6.127V241.071z M437.716,251.119h-6.127v-5.739h6.127V251.119z M437.716,260.881
	h-6.127v-5.452h6.127V260.881z M437.716,270.931h-6.127v-5.454h6.127V270.931z M437.716,280.981h-6.127v-5.167h6.127V280.981z
	 M437.716,291.029h-6.127v-5.167h6.127V291.029z M437.716,301.365h-6.127v-5.739h6.127V301.365z M437.716,311.413h-6.127v-5.739
	h6.127V311.413z M437.716,321.177h-6.127v-6.127h6.127V321.177z M437.716,331.225h-6.127v-6.127h6.127V331.225z"/>
<rect x="425.76" y="140.883" fill="#3D3C3E" width="17.572" height="18.756"/>
<ellipse fill="#1C191A" cx="529.109" cy="96.17" rx="5.536" ry="1.091"/>
<path fill="none" stroke="#3D3C3E" stroke-width="5" stroke-miterlimit="10" d="M319.625,192.262v-91.505h-39.156v91.531
	c-22.003,8.012-37.716,29.113-37.716,53.887c0,31.664,25.669,57.333,57.333,57.333c31.664,0,57.333-25.669,57.333-57.333
	C357.419,221.373,341.668,200.253,319.625,192.262z"/>
<path fill="none" stroke="#3D3C3E" stroke-width="7.2843" stroke-miterlimit="10" d="M279.124,98.816
	c0-2.146,9.242-3.881,20.641-3.881c11.4,0,20.641,1.739,20.641,3.881"/>
<path fill="none" stroke="#565556" stroke-width="7.2843" stroke-miterlimit="10" d="M320.408,98.816
	c0,2.146-9.242,3.881-20.641,3.881s-20.641-1.739-20.641-3.881"/>
<path fill="#565556" d="M321.656,94.734c0.906,0.547,2.656,2.142,2.35,4.743c-0.239,2.033-2.817,4.054-3.913,4.054
	c-1.094,0,1.316-4.339,0.073-4.054c-5.703,1.307-9.298,1.458-3.916-1.977C317.719,96.562,320.285,96.286,321.656,94.734z"/>
<path fill="#565556" d="M275.484,98.872c0,1.846,1.525,2.417,2.838,2.417c1.314,0,3.582-1.435,5.428-1.414
	c5.375,0.062-0.969-2.688-0.969-2.688s-2.781-0.75-3.219-3.281C279.562,93.906,275.484,95.219,275.484,98.872z"/>
<polygon fill="#3D3C3E" points="210.649,37.056 210.649,13.056 178.649,13.056 178.649,37.056 154.649,37.056 154.649,69.056 
	178.649,69.056 178.649,93.056 193.768,93.056 179.931,69.088 190.322,69.088 190.322,40.219 190.333,40.219 190.333,38.319 
	188.433,38.319 188.433,36.419 190.333,36.419 190.333,38.319 192.233,38.319 192.233,40.219 198.975,40.219 198.975,38.319 
	197.075,38.319 197.075,36.419 198.975,36.419 198.975,38.319 200.875,38.319 200.875,40.219 198.975,40.219 198.975,69.088 
	209.367,69.088 195.529,93.056 210.649,93.056 210.649,69.056 234.649,69.056 234.649,37.056 "/>
</svg>
