<?xml version="1.0" encoding="utf-8"?>
<!-- Generator: Adobe Illustrator 17.0.0, SVG Export Plug-In . SVG Version: 6.00 Build 0)  -->
<!DOCTYPE svg PUBLIC "-//W3C//DTD SVG 1.1//EN" "http://www.w3.org/Graphics/SVG/1.1/DTD/svg11.dtd">
<svg version="1.1" id="Layer_1" xmlns="http://www.w3.org/2000/svg" xmlns:xlink="http://www.w3.org/1999/xlink" x="0px" y="0px"
	 width="705px" height="700px" viewBox="0 0 705 700" enable-background="new 0 0 705 700" xml:space="preserve">
<rect x="269.393" y="125.194" fill="#3D3C3E" width="11.156" height="387.161"/>
<path fill="none" stroke="#FC0303" stroke-width="1.6736" stroke-miterlimit="10" d="M421.691,505.416"/>
<path fill="#3D3C3E" d="M416.276,502.194"/>
<path fill="#3D3C3E" d="M276.782,497.546"/>
<rect x="275.815" y="438.386" fill="#3D3C3E" width="174.946" height="5.497"/>
<rect x="253.239" y="503.504" fill="#3D3C3E" width="193.432" height="10.564"/>
<polygon fill="#3D3C3E" points="381.603,512.981 361.832,512.981 366.161,494.581 377.201,494.581 "/>
<path fill="#3D3C3E" d="M373.85,489.056c0,0-18.39,1.802-13.739-16.82c3.518-14.083,11.651-23.432,11.651-23.432
	s-1.439,13.626,7.701,25.755C391.047,489.928,373.85,489.056,373.85,489.056z"/>
<rect x="253.391" y="170.148" fill="#3D3C3E" width="7.53" height="18.756"/>
<rect x="259.659" y="175.309" fill="#3D3C3E" width="101.428" height="7.95"/>
<ellipse fill="#1C191A" cx="257.156" cy="170.148" rx="3.752" ry="1.093"/>
<ellipse fill="#3D3C3E" cx="257.156" cy="188.905" rx="3.752" ry="1.093"/>
<ellipse fill="#1C191A" cx="369.533" cy="170.036" rx="8.67" ry="1.091"/>
<ellipse fill="#3D3C3E" cx="369.533" cy="188.907" rx="8.773" ry="1.091"/>
<path fill="none" stroke="#3D3C3E" stroke-width="9.3217" stroke-miterlimit="10" d="M339.507,237.904
	c0-2.141,15.134-3.881,33.802-3.881c18.668,0,33.802,1.735,33.802,3.881"/>
<path fill="none" stroke="#565556" stroke-width="9.3217" stroke-miterlimit="10" d="M407.108,237.904
	c0,2.141-15.134,3.881-33.802,3.881s-33.802-1.735-33.802-3.881"/>
<path fill="#565556" d="M341.179,237.904c-2.035-0.285-1.455,3.721-3.247,3.721c-1.794,0-2.811-1.679-3.042-3.721
	c-0.241-2.136,1.572-4.167,3.384-5.042C349.856,237.659,351.93,239.409,341.179,237.904z"/>
<path fill="#565556" d="M411.759,237.805c0,1.846-2.497,2.417-4.648,2.417s-3.896-1.496-3.896-3.342
	c0-1.846-0.148-1.804,3.107-3.231c1.391-0.609,1.227-1.077,1.719-0.906C410.65,233.649,411.759,236.265,411.759,237.805z"/>
<path opacity="0.5" fill="#3D3C3E" d="M429.938,358.575c-0.471-1.92-0.567-2.465-0.971-4.503
	c-1.266-6.385-2.806-12.232-2.806-12.232c-2.739-2.571-6.425-4.146-10.478-4.146c-4.382,0-8.323,1.85-11.115,4.8
	c-2.519-1.82-5.604-2.905-8.95-2.905c-3.395,0-6.521,1.118-9.06,2.988c-2.672-2.274-6.13-3.654-9.914-3.654
	c-4.342,0-8.253,1.815-11.039,4.717c-2.714-2.444-6.294-3.945-10.234-3.945c-3.957,0-7.552,1.514-10.27,3.977h-0.817
	c-2.8-3.63-7.181-5.979-12.121-5.979c-1.621,0-3.177,0.262-4.642,0.729c-0.953-1.413-2.569-2.342-4.402-2.342
	c-2.931,0-5.307,2.376-5.307,5.307c0,1.362,0.528,2.592,1.372,3.532c-1.291,2.073-2.109,4.471-2.282,7.049
	c-0.018,0.063-0.034,0.124-0.052,0.188L299.969,425.4c0,5.137,4.477,9.302,10,9.302h124.04c5.523,0,10-4.165,10-9.302
	L429.938,358.575z"/>
<circle opacity="0.5" fill="#3D3C3E" cx="344.137" cy="298.352" r="5.307"/>
<circle fill="#D3D3D3" cx="410.042" cy="304.222" r="1.176"/>
<circle opacity="0.5" fill="#3D3C3E" cx="394.224" cy="334.527" r="5.132"/>
<path fill="none" stroke="#4F4F4F" stroke-width="5" stroke-miterlimit="10" d="M407.111,237.904l38.396,184.939
	c0,7.142-5.011,12.935-11.197,12.935H311.166c-6.183,0-11.197-5.788-11.197-12.935l39.537-184.939"/>
<g>
	<g>
		<g>
			<path fill="#D3D3D3" d="M399.635,257.666c2.44,12.898,4.88,25.796,7.32,38.694c0.27,1.425,2.438,0.82,2.17-0.598
				c-2.44-12.898-4.88-25.796-7.32-38.694C401.536,255.644,399.367,256.249,399.635,257.666L399.635,257.666z"/>
		</g>
	</g>
</g>
<path fill="#636366" d="M374.302,363.308v-19.419V140.803V121.38h-9.615v19.424v203.086v19.419c0,0.002-0.004,0.003-0.004,0.005
	c0,0.31,2.154,0.562,4.812,0.562s4.812-0.252,4.812-0.562C374.306,363.311,374.302,363.31,374.302,363.308z M366.364,123.953h6.127
	v6.127h-6.127V123.953z M366.364,134.003h6.127v6.127h-6.127V134.003z M366.364,143.765h6.127v5.739h-6.127V143.765z
	 M366.364,153.815h6.127v5.739h-6.127V153.815z M366.364,164.15h6.127v5.167h-6.127V164.15z M366.364,174.2h6.127v5.167h-6.127
	V174.2z M366.364,183.962h6.127v5.739h-6.127V183.962z M366.364,194.012h6.127v5.739h-6.127V194.012z M366.364,204.347h6.127v5.167
	h-6.127V204.347z M366.364,214.394h6.127v5.168h-6.127V214.394z M366.364,224.159h6.127v5.739h-6.127V224.159z M366.364,234.206
	h6.127v5.739h-6.127V234.206z M366.364,244.543h6.127v5.167h-6.127V244.543z M366.364,254.591h6.127v5.167h-6.127V254.591z
	 M366.364,264.353h6.127v5.741h-6.127V264.353z M366.364,274.403h6.127v5.739h-6.127V274.403z M366.364,284.453h6.127v5.452h-6.127
	V284.453z M366.364,294.501h6.127v5.454h-6.127V294.501z M366.364,304.837h6.127v5.167h-6.127V304.837z M366.364,314.885h6.127
	v5.167h-6.127V314.885z M366.364,324.65h6.127v5.739h-6.127V324.65z M366.364,334.697h6.127v5.739h-6.127V334.697z M366.364,344.073
	h6.127v6.127h-6.127V344.073z M366.364,354.121h6.127v6.127h-6.127V354.121z"/>
<rect x="360.747" y="169.906" fill="#3D3C3E" width="17.572" height="18.756"/>
<ellipse fill="#1C191A" cx="274.971" cy="125.194" rx="5.536" ry="1.091"/>
</svg>
