<?xml version="1.0" encoding="utf-8"?>
<!-- Generator: Adobe Illustrator 17.0.0, SVG Export Plug-In . SVG Version: 6.00 Build 0)  -->
<!DOCTYPE svg PUBLIC "-//W3C//DTD SVG 1.1//EN" "http://www.w3.org/Graphics/SVG/1.1/DTD/svg11.dtd">
<svg version="1.1" id="Layer_1" xmlns="http://www.w3.org/2000/svg" xmlns:xlink="http://www.w3.org/1999/xlink" x="0px" y="0px"
	 width="200px" height="400px" viewBox="0 0 200 400" enable-background="new 0 0 200 400" xml:space="preserve">
<rect x="171.451" y="6.218" fill="#3D3C3E" width="11.156" height="387.161"/>
<rect x="1.239" y="319.41" fill="#3D3C3E" width="174.946" height="5.497"/>
<rect x="5.329" y="384.528" fill="#3D3C3E" width="193.432" height="10.564"/>
<polygon fill="#3D3C3E" points="70.397,394.005 90.168,394.005 85.839,375.605 74.799,375.605 "/>
<path fill="#3D3C3E" d="M78.15,370.08c0,0,18.39,1.802,13.739-16.82c-3.518-14.083-11.651-23.432-11.651-23.432
	s1.439,13.626-7.701,25.755C60.953,370.952,78.15,370.08,78.15,370.08z"/>
<rect x="191.079" y="51.172" fill="#3D3C3E" width="7.53" height="18.756"/>
<rect x="90.913" y="56.333" fill="#3D3C3E" width="101.428" height="7.95"/>
<ellipse fill="#1C191A" cx="194.844" cy="51.172" rx="3.752" ry="1.093"/>
<ellipse fill="#3D3C3E" cx="194.844" cy="69.929" rx="3.752" ry="1.093"/>
<ellipse fill="#1C191A" cx="177.029" cy="6.218" rx="5.536" ry="1.091"/>
</svg>
