<?xml version="1.0" encoding="utf-8"?>
<!-- Generator: Adobe Illustrator 17.0.0, SVG Export Plug-In . SVG Version: 6.00 Build 0)  -->
<!DOCTYPE svg PUBLIC "-//W3C//DTD SVG 1.1//EN" "http://www.w3.org/Graphics/SVG/1.1/DTD/svg11.dtd">
<svg version="1.1" id="Layer_1" xmlns="http://www.w3.org/2000/svg" xmlns:xlink="http://www.w3.org/1999/xlink" x="0px" y="0px"
	 width="160px" height="220px" viewBox="0 0 160 220" enable-background="new 0 0 160 220" xml:space="preserve">
<circle fill="#D3D3D3" cx="68.417" cy="72.588" r="1.183"/>
<g>
	<g>
		<g>
			<path fill="#D3D3D3" d="M66.835,24.5c-0.001,13.214-0.002,26.428-0.002,39.642c0,1.461,2.265,1.461,2.265,0
				C69.098,50.928,69.099,37.714,69.1,24.5C69.1,23.039,66.835,23.039,66.835,24.5L66.835,24.5z"/>
		</g>
	</g>
</g>
<path fill="none" stroke="#3D3C3E" stroke-width="5.0332" stroke-miterlimit="10" d="M100.136,104.915V12.802H60.719v92.14
	c-22.149,8.065-37.967,29.307-37.967,54.245c0,31.875,25.84,57.714,57.714,57.714c31.875,0,57.714-25.84,57.714-57.714
	C138.181,134.22,122.326,112.959,100.136,104.915z"/>
<path fill="none" stroke="#3D3C3E" stroke-width="7.3327" stroke-miterlimit="10" d="M59.366,10.849
	c0-2.16,9.303-3.907,20.778-3.907s20.778,1.751,20.778,3.907"/>
<path fill="none" stroke="#565556" stroke-width="7.3327" stroke-miterlimit="10" d="M100.924,10.849
	c0,2.16-9.303,3.907-20.778,3.907s-20.778-1.751-20.778-3.907"/>
<path fill="#565556" d="M102.181,6.74c0.912,0.551,2.674,2.156,2.366,4.774c-0.241,2.047-2.836,4.081-3.939,4.081
	c-1.101,0,1.324-4.368,0.073-4.081c-5.741,1.316-9.36,1.467-3.943-1.99C98.217,8.58,100.8,8.302,102.181,6.74z"/>
<path fill="#565556" d="M55.701,10.905c0,1.858,1.535,2.433,2.857,2.433c1.323,0,3.606-1.445,5.464-1.423
	c5.411,0.063-0.975-2.705-0.975-2.705s-2.8-0.755-3.24-3.303C59.807,5.906,55.701,7.227,55.701,10.905z"/>
</svg>
