<?xml version="1.0" encoding="utf-8"?>
<!-- Generator: Adobe Illustrator 17.0.0, SVG Export Plug-In . SVG Version: 6.00 Build 0)  -->
<!DOCTYPE svg PUBLIC "-//W3C//DTD SVG 1.1//EN" "http://www.w3.org/Graphics/SVG/1.1/DTD/svg11.dtd">
<svg version="1.1" id="Layer_1" xmlns="http://www.w3.org/2000/svg" xmlns:xlink="http://www.w3.org/1999/xlink" x="0px" y="0px"
	 width="300px" height="350px" viewBox="0 0 300 350" enable-background="new 0 0 300 350" xml:space="preserve">
<circle fill="#D3D3D3" cx="133.092" cy="114.107" r="1.872"/>
<g>
	<g>
		<g>
			<path fill="#D3D3D3" d="M130.589,38.056c-0.001,20.898-0.002,41.796-0.004,62.694c0,2.31,3.582,2.31,3.582,0
				c0.001-20.898,0.002-41.796,0.004-62.694C134.171,35.746,130.589,35.746,130.589,38.056L130.589,38.056z"/>
		</g>
	</g>
</g>
<path opacity="0.5" fill="#3D3C3E" d="M239.024,255.285c-0.119-6.989,2.754-13.56,2.671-20.458
	c-0.001-0.064-0.006-0.129-0.007-0.193l-5.465-23.711c-0.029-0.102-0.055-0.199-0.084-0.299c-0.008-0.124-0.031-0.243-0.042-0.367
	c-3.898-8.493-9.561-15.539-16.722-21.38c-0.045,0.062-0.099,0.118-0.142,0.182c-2.332-0.743-4.811-1.16-7.391-1.16
	c-7.864,0-14.838,3.739-19.296,9.519h-1.3c-4.327-3.922-10.05-6.332-16.35-6.332c-6.272,0-11.972,2.389-16.293,6.28
	c-4.437-4.621-10.663-7.51-17.575-7.51c-6.024,0-11.528,2.196-15.783,5.817c-4.042-2.976-9.019-4.757-14.424-4.757
	c-5.326,0-10.238,1.727-14.248,4.625c-3.017-3.188-6.889-5.536-11.243-6.727c-7.349,11.483-21.316,19.745-23.628,33.633
	c-1.645,9.878-0.404,19.661,0.32,29.556c0.621,8.489,0.882,16.962,2.888,25.285c3.795,15.745,11.486,30.476,24.199,40.861
	c11.802,9.64,26.711,19.648,42.004,24.19h12.118c0.239-0.465,0.673-0.827,1.35-0.839c13.51-0.255,26.349-4.15,39.369-7.371
	c12.254-3.032,19.923-11.961,29.861-18.941c12.258-8.609,19.398-17.943,24.728-31.825c1.211-3.154,2.547-6.286,3.876-9.428
	C239.942,267.643,239.097,259.625,239.024,255.285z"/>
<path opacity="0.5" fill="#3D3C3E" d="M69.744,202.971c4.191-4.767,8.697-9.375,12.214-14.821c-0.573-0.072-1.145-0.148-1.73-0.18
	c-2.277,2.422-4.79,4.76-7.223,7.15C72.338,197.916,71.18,200.51,69.744,202.971z"/>
<circle opacity="0.5" fill="#3D3C3E" cx="158.493" cy="144.12" r="8.449"/>
<circle opacity="0.5" fill="#3D3C3E" cx="113.043" cy="182.858" r="8.169"/>
<path fill="none" stroke="#3D3C3E" stroke-width="7.96" stroke-miterlimit="10" d="M181.661,165.233V19.556h-62.337v145.719
	C84.296,178.03,59.28,211.624,59.28,251.063c0,50.41,40.865,91.275,91.275,91.275c50.41,0,91.275-40.865,91.275-91.275
	C241.83,211.578,216.755,177.954,181.661,165.233z"/>
<path fill="none" stroke="#3D3C3E" stroke-width="11.5967" stroke-miterlimit="10" d="M117.184,16.467
	c0-3.416,14.713-6.178,32.861-6.178s32.861,2.769,32.861,6.178"/>
<path fill="none" stroke="#565556" stroke-width="11.5967" stroke-miterlimit="10" d="M182.908,16.467
	c0,3.416-14.713,6.178-32.861,6.178s-32.861-2.769-32.861-6.178"/>
<path fill="#565556" d="M184.895,9.969c1.443,0.871,4.229,3.41,3.742,7.551c-0.381,3.237-4.485,6.454-6.229,6.454
	c-1.742,0,2.095-6.908,0.116-6.454c-9.079,2.081-14.802,2.321-6.235-3.148C178.627,12.879,182.712,12.439,184.895,9.969z"/>
<path fill="#565556" d="M111.388,16.556c0,2.939,2.427,3.847,4.519,3.847s5.703-2.285,8.641-2.251
	c8.557,0.1-1.542-4.279-1.542-4.279s-4.428-1.194-5.124-5.224C117.882,8.65,111.388,10.74,111.388,16.556z"/>
</svg>
