<?xml version="1.0" encoding="utf-8"?>
<!-- Generator: Adobe Illustrator 17.0.0, SVG Export Plug-In . SVG Version: 6.00 Build 0)  -->
<!DOCTYPE svg PUBLIC "-//W3C//DTD SVG 1.1//EN" "http://www.w3.org/Graphics/SVG/1.1/DTD/svg11.dtd">
<svg version="1.1" id="Layer_1" xmlns="http://www.w3.org/2000/svg" xmlns:xlink="http://www.w3.org/1999/xlink" x="0px" y="0px"
	 width="35px" height="350px" viewBox="0 0 35 350" enable-background="new 0 0 35 350" xml:space="preserve">
<ellipse fill="#1C191A" cx="18.675" cy="76.46" rx="11.777" ry="1.482"/>
<path fill="#636366" d="M25.153,338.988v-26.378V36.752V10.369h-13.06v26.384v275.859v26.378c0,0.003-0.005,0.004-0.005,0.007
	c0,0.421,2.926,0.763,6.536,0.763s6.536-0.342,6.536-0.763C25.158,338.992,25.153,338.991,25.153,338.988z M14.371,13.864h8.323
	v8.323h-8.323V13.864z M14.371,27.515h8.323v8.323h-8.323V27.515z M14.371,40.775h8.323v7.795h-8.323V40.775z M14.371,54.426h8.323
	v7.795h-8.323V54.426z M14.371,68.465h8.323v7.019h-8.323V68.465z M14.371,82.116h8.323v7.019h-8.323V82.116z M14.371,95.376h8.323
	v7.795h-8.323V95.376z M14.371,109.027h8.323v7.795h-8.323V109.027z M14.371,123.066h8.323v7.019h-8.323V123.066z M14.371,136.713
	h8.323v7.02h-8.323V136.713z M14.371,149.977h8.323v7.795h-8.323V149.977z M14.371,163.624h8.323v7.795h-8.323V163.624z
	 M14.371,177.665h8.323v7.019h-8.323V177.665z M14.371,191.314h8.323v7.019h-8.323V191.314z M14.371,204.574h8.323v7.798h-8.323
	V204.574z M14.371,218.225h8.323v7.795h-8.323V218.225z M14.371,231.877h8.323v7.406h-8.323V231.877z M14.371,245.525h8.323v7.408
	h-8.323V245.525z M14.371,259.565h8.323v7.018h-8.323V259.565z M14.371,273.213h8.323v7.018h-8.323V273.213z M14.371,286.478h8.323
	v7.795h-8.323V286.478z M14.371,300.125h8.323v7.795h-8.323V300.125z M14.371,312.86h8.323v8.323h-8.323V312.86z M14.371,326.509
	h8.323v8.323h-8.323V326.509z"/>
<rect x="6.799" y="76.46" fill="#3D3C3E" width="23.752" height="25.632"/>
<ellipse fill="#3D3C3E" cx="18.675" cy="102.093" rx="11.917" ry="1.482"/>
</svg>
