<?xml version="1.0" encoding="utf-8"?>
<!-- Generator: Adobe Illustrator 17.0.0, SVG Export Plug-In . SVG Version: 6.00 Build 0)  -->
<!DOCTYPE svg PUBLIC "-//W3C//DTD SVG 1.1//EN" "http://www.w3.org/Graphics/SVG/1.1/DTD/svg11.dtd">
<svg version="1.1" id="Layer_1" xmlns="http://www.w3.org/2000/svg" xmlns:xlink="http://www.w3.org/1999/xlink" x="0px" y="0px"
	 width="100px" height="220px" viewBox="0 0 100 220" enable-background="new 0 0 100 220" xml:space="preserve">
<rect x="17.323" y="0.876" fill="#3D3C3E" width="5.748" height="210.391"/>
<rect x="10.639" y="39.966" fill="#3D3C3E" width="3.88" height="9.664"/>
<rect x="10.639" y="42.624" fill="#3D3C3E" width="32.227" height="4.096"/>
<polyline fill="none" stroke="#3D3C3E" stroke-width="0.8539" stroke-miterlimit="10" points="20.425,203.637 6.193,215.723 
	76.625,215.723 76.615,218.959 "/>
<polyline fill="none" stroke="#3D3C3E" stroke-width="0.8639" stroke-miterlimit="10" points="5.473,216.154 5.473,218.959 
	76.933,218.959 76.933,218.959 "/>
<path fill="none" stroke="#FC0303" stroke-width="0.8623" stroke-miterlimit="10" d="M95.792,207.692"/>
<path fill="none" stroke="#FC0303" stroke-width="0.8623" stroke-miterlimit="10" d="M80.29,220.518"/>
<polyline fill="#3D3C3E" points="93.003,206.032 76.933,219.352 76.933,215.31 93.003,202.07 "/>
<polyline fill="#3D3C3E" points="21.449,202.07 93.003,202.07 91.144,203.637 21.13,203.637 "/>
<ellipse fill="#1C191A" cx="20.197" cy="0.876" rx="2.872" ry="0.562"/>
<ellipse fill="#1C191A" cx="12.561" cy="40.003" rx="1.933" ry="0.563"/>
<ellipse fill="#3D3C3E" cx="12.561" cy="49.63" rx="1.933" ry="0.563"/>
<ellipse fill="#1C191A" cx="47.218" cy="39.908" rx="4.467" ry="0.562"/>
<ellipse fill="#3D3C3E" cx="47.218" cy="49.63" rx="4.52" ry="0.562"/>
<path fill="#636366" d="M44.699,30.481v114.646h4.954V30.481H44.699z M48.72,143.548h-3.157v-3.157h3.157V143.548z M48.72,138.37
	h-3.157v-3.157h3.157V138.37z M48.72,133.34h-3.157v-3.157h3.157V133.34z M48.72,128.162h-3.157v-3.157h3.157V128.162z
	 M48.72,122.837h-3.157v-3.157h3.157V122.837z M48.72,117.659h-3.157v-3.157h3.157V117.659z M48.72,112.482h-3.157v-3.157h3.157
	V112.482z M48.72,107.304h-3.157v-3.157h3.157V107.304z M48.72,102.274h-3.157v-3.157h3.157V102.274z M48.72,97.096h-3.157v-3.157
	h3.157V97.096z M48.72,91.771h-3.157v-3.157h3.157V91.771z M48.72,86.593h-3.157v-3.157h3.157V86.593z M48.72,81.563h-3.157v-3.157
	h3.157V81.563z M48.72,76.385h-3.157v-3.157h3.157V76.385z M48.72,71.06h-3.157v-3.157h3.157V71.06z M48.72,65.882h-3.157v-3.157
	h3.157V65.882z M48.72,60.852h-3.157v-3.157h3.157V60.852z M48.72,55.674h-3.157v-3.157h3.157V55.674z M48.72,50.349h-3.157v-3.157
	h3.157V50.349z M48.72,45.171h-3.157v-3.157h3.157V45.171z M48.72,40.141h-3.157v-3.157h3.157V40.141z M48.72,34.964h-3.157v-3.157
	h3.157V34.964z"/>
<rect x="42.697" y="39.966" fill="#3D3C3E" width="9.054" height="9.664"/>
<rect x="17.323" y="191.867" fill="#3D3C3E" width="61.344" height="1.384"/>
<path fill="none" stroke="#0000FF" stroke-width="2.4657" stroke-miterlimit="10" d="M28.152,189.303"/>
<path fill="none" stroke="#0000FF" stroke-width="2.4657" stroke-miterlimit="10" d="M38.388,137.21"/>
</svg>
