<?xml version="1.0" encoding="utf-8"?>
<!-- Generator: Adobe Illustrator 17.0.0, SVG Export Plug-In . SVG Version: 6.00 Build 0)  -->
<!DOCTYPE svg PUBLIC "-//W3C//DTD SVG 1.1//EN" "http://www.w3.org/Graphics/SVG/1.1/DTD/svg11.dtd">
<svg version="1.1" id="Layer_1" xmlns="http://www.w3.org/2000/svg" xmlns:xlink="http://www.w3.org/1999/xlink" x="0px" y="0px"
	 width="100px" height="187px" viewBox="0 0 100 187" enable-background="new 0 0 100 187" xml:space="preserve">
<rect x="8.491" y="2.354" fill="#3D3C3E" width="5.748" height="181.761"/>
<rect x="1.807" y="22.821" fill="#3D3C3E" width="3.88" height="9.664"/>
<rect x="4.499" y="25.48" fill="#3D3C3E" width="44.547" height="4.096"/>
<path fill="none" stroke="#3D3C3E" stroke-width="0.8539" stroke-miterlimit="10" d="M11.593,176.485"/>
<path fill="none" stroke="#FC0303" stroke-width="0.8623" stroke-miterlimit="10" d="M86.961,180.54"/>
<path fill="#3D3C3E" d="M84.171,174.918"/>
<path fill="#3D3C3E" d="M84.171,178.88"/>
<path fill="#3D3C3E" d="M12.298,176.485"/>
<line fill="#3D3C3E" x1="84.171" y1="174.918" x2="82.312" y2="176.485"/>
<path fill="#3D3C3E" d="M12.617,174.918"/>
<ellipse fill="#1C191A" cx="11.365" cy="2.354" rx="2.872" ry="0.486"/>
<ellipse fill="#1C191A" cx="3.729" cy="22.859" rx="1.933" ry="0.563"/>
<ellipse fill="#3D3C3E" cx="3.729" cy="32.486" rx="1.933" ry="0.563"/>
<ellipse fill="#1C191A" cx="53.398" cy="22.763" rx="4.467" ry="0.562"/>
<ellipse fill="#3D3C3E" cx="53.398" cy="32.486" rx="4.52" ry="0.562"/>
<path fill="#636366" d="M50.879,23.344V137.99h4.954V23.344H50.879z M54.9,136.411h-3.157v-3.157H54.9V136.411z M54.9,131.234
	h-3.157v-3.157H54.9V131.234z M54.9,126.203h-3.157v-3.157H54.9V126.203z M54.9,121.026h-3.157v-3.157H54.9V121.026z M54.9,115.7
	h-3.157v-3.157H54.9V115.7z M54.9,110.523h-3.157v-3.157H54.9V110.523z M54.9,105.345h-3.157v-3.157H54.9V105.345z M54.9,100.167
	h-3.157v-3.157H54.9V100.167z M54.9,95.137h-3.157V91.98H54.9V95.137z M54.9,89.96h-3.157v-3.157H54.9V89.96z M54.9,84.634h-3.157
	v-3.157H54.9V84.634z M54.9,79.457h-3.157V76.3H54.9V79.457z M54.9,74.426h-3.157V71.27H54.9V74.426z M54.9,69.249h-3.157v-3.157
	H54.9V69.249z M54.9,63.924h-3.157v-3.157H54.9V63.924z M54.9,58.746h-3.157v-3.157H54.9V58.746z M54.9,53.716h-3.157v-3.157H54.9
	V53.716z M54.9,48.538h-3.157v-3.157H54.9V48.538z M54.9,43.213h-3.157v-3.157H54.9V43.213z M54.9,38.035h-3.157v-3.157H54.9V38.035
	z M54.9,33.005h-3.157v-3.157H54.9V33.005z M54.9,27.827h-3.157V24.67H54.9V27.827z"/>
<path fill="#636366" d="M50.879,13.336v114.646h4.954V13.336H50.879z M54.9,126.403h-3.157v-3.157H54.9V126.403z M54.9,121.226
	h-3.157v-3.157H54.9V121.226z M54.9,116.195h-3.157v-3.157H54.9V116.195z M54.9,111.018h-3.157v-3.157H54.9V111.018z M54.9,105.692
	h-3.157v-3.157H54.9V105.692z M54.9,100.515h-3.157v-3.157H54.9V100.515z M54.9,95.337h-3.157V92.18H54.9V95.337z M54.9,90.159
	h-3.157v-3.157H54.9V90.159z M54.9,85.129h-3.157v-3.157H54.9V85.129z M54.9,79.952h-3.157v-3.157H54.9V79.952z M54.9,74.626h-3.157
	V71.47H54.9V74.626z M54.9,69.449h-3.157v-3.157H54.9V69.449z M54.9,64.418h-3.157v-3.157H54.9V64.418z M54.9,59.241h-3.157v-3.157
	H54.9V59.241z M54.9,53.916h-3.157v-3.157H54.9V53.916z M54.9,48.738h-3.157v-3.157H54.9V48.738z M54.9,43.708h-3.157v-3.157H54.9
	V43.708z M54.9,38.53h-3.157v-3.157H54.9V38.53z M54.9,33.205h-3.157v-3.157H54.9V33.205z M54.9,28.027h-3.157V24.87H54.9V28.027z
	 M54.9,22.997h-3.157V19.84H54.9V22.997z M54.9,17.819h-3.157v-3.157H54.9V17.819z"/>
<path fill="#636366" d="M50.879,3.328v114.646h4.954V3.328H50.879z M54.9,116.395h-3.157v-3.157H54.9V116.395z M54.9,111.218h-3.157
	v-3.157H54.9V111.218z M54.9,106.187h-3.157v-3.157H54.9V106.187z M54.9,101.01h-3.157v-3.157H54.9V101.01z M54.9,95.684h-3.157
	v-3.157H54.9V95.684z M54.9,90.507h-3.157V87.35H54.9V90.507z M54.9,85.329h-3.157v-3.157H54.9V85.329z M54.9,80.151h-3.157v-3.157
	H54.9V80.151z M54.9,75.121h-3.157v-3.157H54.9V75.121z M54.9,69.944h-3.157v-3.157H54.9V69.944z M54.9,64.618h-3.157v-3.157H54.9
	V64.618z M54.9,59.441h-3.157v-3.157H54.9V59.441z M54.9,54.41h-3.157v-3.157H54.9V54.41z M54.9,49.233h-3.157v-3.157H54.9V49.233z
	 M54.9,43.908h-3.157v-3.157H54.9V43.908z M54.9,38.73h-3.157v-3.157H54.9V38.73z M54.9,33.7h-3.157v-3.157H54.9V33.7z M54.9,28.522
	h-3.157v-3.157H54.9V28.522z M54.9,23.197h-3.157V20.04H54.9V23.197z M54.9,18.019h-3.157v-3.157H54.9V18.019z M54.9,12.989h-3.157
	V9.832H54.9V12.989z M54.9,7.811h-3.157V4.654H54.9V7.811z"/>
<rect x="8.491" y="166.098" fill="#3D3C3E" width="86.008" height="1.618"/>
<path fill="none" stroke="#0000FF" stroke-width="2.4657" stroke-miterlimit="10" d="M34.332,162.151"/>
<path fill="none" stroke="#0000FF" stroke-width="2.4657" stroke-miterlimit="10" d="M44.568,110.057"/>
<rect x="0.168" y="179.555" fill="#3D3C3E" width="99.664" height="5.443"/>
<path fill="none" stroke="#4F4F4F" stroke-width="3.783" stroke-miterlimit="10" d="M63.771,116.016l10.732,45.081
	c0,1.741-1.411,3.153-3.153,3.153H36.673c-1.741,0-3.153-1.411-3.153-3.153l10.732-45.081"/>
<g>
	<polygon fill="#3D3C3E" points="68.473,158.295 60.44,121.032 68.781,158.227 	"/>
</g>
<path fill="none" stroke="#3D3C3E" stroke-width="2.8373" stroke-miterlimit="10" d="M40.559,116.016
	c0-0.522,5.752-0.946,12.847-0.946s12.847,0.423,12.847,0.946"/>
<path fill="#636366" d="M50.879,13.336v114.646h4.954V13.336H50.879z M54.9,126.403h-3.157v-3.157H54.9V126.403z M54.9,121.226
	h-3.157v-3.157H54.9V121.226z M54.9,116.195h-3.157v-3.157H54.9V116.195z M54.9,111.018h-3.157v-3.157H54.9V111.018z M54.9,105.692
	h-3.157v-3.157H54.9V105.692z M54.9,100.515h-3.157v-3.157H54.9V100.515z M54.9,95.337h-3.157V92.18H54.9V95.337z M54.9,90.159
	h-3.157v-3.157H54.9V90.159z M54.9,85.129h-3.157v-3.157H54.9V85.129z M54.9,79.952h-3.157v-3.157H54.9V79.952z M54.9,74.626h-3.157
	V71.47H54.9V74.626z M54.9,69.449h-3.157v-3.157H54.9V69.449z M54.9,64.418h-3.157v-3.157H54.9V64.418z M54.9,59.241h-3.157v-3.157
	H54.9V59.241z M54.9,53.916h-3.157v-3.157H54.9V53.916z M54.9,48.738h-3.157v-3.157H54.9V48.738z M54.9,43.708h-3.157v-3.157H54.9
	V43.708z M54.9,38.53h-3.157v-3.157H54.9V38.53z M54.9,33.205h-3.157v-3.157H54.9V33.205z M54.9,28.027h-3.157V24.87H54.9V28.027z
	 M54.9,22.997h-3.157V19.84H54.9V22.997z M54.9,17.819h-3.157v-3.157H54.9V17.819z"/>
<path fill="none" stroke="#565556" stroke-width="2.8373" stroke-miterlimit="10" d="M66.252,116.016
	c0,0.522-5.752,0.946-12.847,0.946s-12.847-0.423-12.847-0.946"/>
<ellipse fill="#636366" cx="53.356" cy="127.982" rx="2.477" ry="0.282"/>
<path fill="#565556" d="M41.575,116.016c0,0.501-0.553,0.907-1.234,0.907c-0.682,0-1.156-0.406-1.156-0.907
	c0-0.501,0.695-1.146,1.374-1.21C41.716,114.696,41.575,115.23,41.575,116.016z"/>
<path fill="#565556" d="M67.669,116.087c0,0.501-1.162,0.727-1.844,0.727s-1.156-0.406-1.156-0.907c0-0.501,0.609-1.023,1.374-1.21
	C67.149,114.425,67.669,115.301,67.669,116.087z"/>
<rect x="48.877" y="22.821" fill="#3D3C3E" width="9.054" height="9.664"/>
</svg>
