<?xml version="1.0" encoding="utf-8"?>
<!-- Generator: Adobe Illustrator 17.0.0, SVG Export Plug-In . SVG Version: 6.00 Build 0)  -->
<!DOCTYPE svg PUBLIC "-//W3C//DTD SVG 1.1//EN" "http://www.w3.org/Graphics/SVG/1.1/DTD/svg11.dtd">
<svg version="1.1" id="Layer_1" xmlns="http://www.w3.org/2000/svg" xmlns:xlink="http://www.w3.org/1999/xlink" x="0px" y="0px"
	 width="245px" height="245px" viewBox="0 0 245 245" enable-background="new 0 0 245 245" xml:space="preserve">
<g>
	<g>
		<path fill="#22BDAF" d="M239.898,5.019v112.421H127.477V5.019H239.898 M244.917,0H122.458v122.458h122.458V0L244.917,0z"/>
	</g>
	<g>
		<path fill="#22BDAF" d="M117.439,127.477v112.421H5.019V127.477H117.439 M122.458,122.458H0v122.458h122.458V122.458
			L122.458,122.458z"/>
	</g>
</g>
<rect x="40.902" y="140.667" fill="#3D3C3E" width="40.333" height="85"/>
<rect x="18.569" y="163" fill="#3D3C3E" width="85" height="40.333"/>
<rect x="164.001" y="19.57" transform="matrix(-0.7071 0.7071 -0.7071 -0.7071 358.2831 -24.266)" fill="#3D3C3E" width="40.333" height="85"/>
<rect x="164.001" y="19.57" transform="matrix(0.7071 0.7071 -0.7071 0.7071 97.8313 -112.046)" fill="#3D3C3E" width="40.333" height="85"/>
</svg>
