<?xml version="1.0" encoding="utf-8"?>
<!-- Generator: Adobe Illustrator 17.0.0, SVG Export Plug-In . SVG Version: 6.00 Build 0)  -->
<!DOCTYPE svg PUBLIC "-//W3C//DTD SVG 1.1//EN" "http://www.w3.org/Graphics/SVG/1.1/DTD/svg11.dtd">
<svg version="1.1" id="Layer_1" xmlns="http://www.w3.org/2000/svg" xmlns:xlink="http://www.w3.org/1999/xlink" x="0px" y="0px"
	 width="300px" height="300px" viewBox="0 0 300 300" enable-background="new 0 0 300 300" xml:space="preserve">
<polygon fill="none" stroke="#BAD7D4" stroke-width="7.3593" stroke-miterlimit="10" points="89.381,184.905 26.169,154.528 
	20.871,84.597 78.784,45.042 141.995,75.419 147.294,145.35 "/>
<g>
	<polygon fill="#BAD7D4" points="83.276,162.374 33.884,138.638 29.469,78.724 71.26,50.181 124.388,76.824 128.528,131.467 	"/>
</g>
<g>
	<g>
		<path fill="#BAD7D4" d="M71.833,58.701l45.531,22.834l3.504,46.251L82.634,153.9L40.91,133.85l-3.79-51.44L71.833,58.701
			 M71.26,50.181L29.47,78.724l4.414,59.915l49.392,23.736l45.252-30.907l-4.14-54.643L71.26,50.181L71.26,50.181z"/>
	</g>
</g>
<g>
	<polygon fill="#BAD7D4" points="182.629,190.541 162.3,160.121 158.59,154.57 164.589,157.415 282.062,213.136 282.37,213.282 
		282.368,213.611 282.013,265.654 281.317,213.615 281.622,214.09 163.047,160.753 165.336,158.047 186.276,188.051 	"/>
</g>
<path fill="none" stroke="#BAD7D4" stroke-width="4.4156" stroke-miterlimit="10" d="M171.329,186.688l7.508-5.128L171.329,186.688z
	"/>
<line fill="none" stroke="#BAD7D4" stroke-width="4.4156" stroke-miterlimit="10" x1="185.163" y1="206.846" x2="169.811" y2="184.368"/>
<path fill="none" stroke="#0092FF" stroke-width="4.4156" stroke-miterlimit="10" d="M176.861,179.658"/>
<path fill="none" stroke="#0092FF" stroke-width="4.4156" stroke-miterlimit="10" d="M169.521,184.671"/>
<rect x="168.822" y="181.67" transform="matrix(0.8258 -0.564 0.564 0.8258 -72.3993 129.7972)" fill="#BAD7D4" width="10.132" height="0.826"/>
<line fill="none" stroke="#BAD7D4" stroke-width="4.4156" stroke-miterlimit="10" x1="199.164" y1="135.474" x2="238.568" y2="193.167"/>
<path fill="none" stroke="#BAD7D4" stroke-width="4.4156" stroke-miterlimit="10" d="M186.212,169.079
	c0,0-5.577-20.597,17.729-26.61"/>
<path fill="none" stroke="#BAD7D4" stroke-width="4.4156" stroke-miterlimit="10" d="M200.104,174.75
	c-0.146-5.624,1.492-14.99,12.778-20.071"/>
<path fill="none" stroke="#0092FF" stroke-width="4.4156" stroke-miterlimit="10" d="M231.485,171.292"/>
<path fill="none" stroke="#BAD7D4" stroke-width="4.4156" stroke-miterlimit="10" d="M220.035,184.55
	c0.928-3.518,2.911-7.263,6.84-10.381"/>
<path fill="none" stroke="#0092FF" stroke-width="4.4156" stroke-miterlimit="10" d="M220.035,184.55"/>
<g>
	<g>
		<path fill="#BAD7D4" d="M224.792,185.191c4.746,0,4.746-7.359,0-7.359S220.046,185.191,224.792,185.191L224.792,185.191z"/>
	</g>
</g>
<g>
	<g>
		<path fill="#BAD7D4" d="M229.713,189.227c4.746,0,4.746-7.359,0-7.359S224.967,189.227,229.713,189.227L229.713,189.227z"/>
	</g>
</g>
<polyline fill="none" stroke="#BAD7D4" stroke-width="4.4156" stroke-miterlimit="10" points="246.549,195.021 250.549,186.894 
	278.469,199.616 "/>
<path fill="none" stroke="#0092FF" stroke-width="4.4156" stroke-miterlimit="10" d="M218.866,164.321"/>
<path fill="none" stroke="#0092FF" stroke-width="4.4156" stroke-miterlimit="10" d="M219.275,164.92"/>
<path fill="#525252" stroke="#0092FF" stroke-width="4.4156" stroke-miterlimit="10" d="M244.446,208.085"/>
<path fill="none" stroke="#0092FF" stroke-width="4.4156" stroke-miterlimit="10" d="M219.275,164.92"/>
<path fill="#FFFFFF" stroke="#231F20" stroke-width="0.7359" stroke-miterlimit="10" d="M260.367,202.997"/>
<path fill="#0092FF" d="M210.399,178.208"/>
<path opacity="0.5" fill="none" stroke="#0092FF" stroke-width="0.7359" stroke-miterlimit="10" d="M223.646,161.167"/>
<rect x="219.824" y="138.477" transform="matrix(0.8258 -0.564 0.564 0.8258 -52.9142 155.2751)" fill="none" stroke="#BAD7D4" stroke-width="3.6796" stroke-miterlimit="10" width="10.089" height="49.613"/>
<polygon fill="none" stroke="#AEB9C1" stroke-width="3.6796" stroke-miterlimit="10" points="155.053,97.638 157.489,131.016 
	158.756,145.906 175.704,154.14 186.149,129.018 153.703,81.401 "/>
<path fill="none" stroke="#0092FF" stroke-width="4.4156" stroke-miterlimit="10" d="M218.866,164.321"/>
<rect x="226.911" y="110.542" transform="matrix(0.8258 -0.564 0.564 0.8258 -35.9244 154.405)" fill="none" stroke="#BAD7D4" stroke-width="3.6796" stroke-miterlimit="10" width="10.089" height="49.613"/>
<path fill="none" stroke="#0092FF" stroke-width="3.6796" stroke-miterlimit="10" d="M260.367,202.997"/>
<polygon fill="#AEB9C1" points="272.324,218.628 273.514,269.407 259.768,263.081 258.321,212.184 "/>
<path fill="none" stroke="#455563" stroke-width="0.7359" stroke-miterlimit="10" d="M225.763,261.404"/>
<polygon fill="#AEB9C1" points="253.93,210.499 255.376,261.396 233.363,251.266 231.916,200.369 "/>
<path fill="none" stroke="#A6CCF0" stroke-width="0.7359" stroke-miterlimit="10" d="M278.502,226.78"/>
<path fill="none" stroke="#00FFBC" stroke-width="0.7359" stroke-miterlimit="10" d="M130.635,206.69"/>
<path fill="none" stroke="#00FFBC" stroke-width="0.7359" stroke-miterlimit="10" d="M156.091,188.342"/>
<ellipse transform="matrix(0.8258 -0.564 0.564 0.8258 -39.3416 132.9568)" fill="#BAD7D4" cx="195.531" cy="130.156" rx="2.81" ry="2.847"/>
<ellipse transform="matrix(0.8258 -0.564 0.564 0.8258 -86.4608 143.0081)" fill="#BAD7D4" cx="188.241" cy="211.448" rx="2.81" ry="2.847"/>
<polyline fill="#AEB9C1" points="98.467,34.21 91.713,38.823 146.366,65.168 169.611,49.292 151.527,22.816 129.161,13.196 "/>
<ellipse transform="matrix(0.8258 -0.564 0.564 0.8258 -80.7286 124.9514)" fill="#BAD7D4" cx="161.88" cy="193.142" rx="2.81" ry="2.847"/>
<polygon fill="#AEB9C1" points="127.235,11.914 89.673,37.569 85.088,35.412 122.62,9.704 "/>
<line fill="none" stroke="#AEB9C1" stroke-width="0.7359" stroke-miterlimit="10" x1="155.976" y1="87.206" x2="175.704" y2="154.14"/>
<polyline fill="none" stroke="#AEB9C1" stroke-width="2.2078" stroke-miterlimit="10" points="159.569,144.711 171.937,142.765 
	184.272,128.635 "/>
<rect x="237.154" y="173.963" transform="matrix(-0.564 -0.8258 0.8258 -0.564 268.4071 495.4952)" fill="#BAD7D4" width="55.715" height="5.854"/>
<path fill="#BAD7D4" d="M226.184,196.907c-3.73,8.189-13.391,11.804-21.58,8.074s-11.804-13.391-8.075-21.579"/>
<rect x="134.965" y="163.006" transform="matrix(0.8258 -0.564 0.564 0.8258 -72.2707 114.0026)" fill="#AEB9C1" width="26.845" height="21.943"/>
</svg>
