<?xml version="1.0" encoding="utf-8"?>
<!-- Generator: Adobe Illustrator 17.0.0, SVG Export Plug-In . SVG Version: 6.00 Build 0)  -->
<!DOCTYPE svg PUBLIC "-//W3C//DTD SVG 1.1//EN" "http://www.w3.org/Graphics/SVG/1.1/DTD/svg11.dtd">
<svg version="1.1" id="Layer_1" xmlns="http://www.w3.org/2000/svg" xmlns:xlink="http://www.w3.org/1999/xlink" x="0px" y="0px"
	 width="80px" height="80px" viewBox="0 0 80 80" enable-background="new 0 0 80 80" xml:space="preserve">
<g>
	<path fill="#3D3C3E" d="M78.636,39.762c0,21.39-17.242,38.912-38.52,38.912c-21.317,0-38.558-17.522-38.558-38.912
		c0-21.428,17.242-38.761,38.558-38.761C61.394,1.001,78.636,18.333,78.636,39.762z M49.736,71.392
		c13.204-4.741,22.863-16.991,22.863-31.631c0-18.053-14.563-32.693-32.484-32.693c-17.959,0-32.522,14.64-32.522,32.693
		c0,14.791,9.81,27.117,23.24,31.631v-6.22c0-3.717,1.547-5.689,3.094-6.751c-8.375-0.872-17.355-3.906-17.355-18.47
		c0-4.096,1.434-7.434,3.81-10.013c-0.377-0.986-1.622-4.779,0.378-9.899c0,0,3.131-1.024,10.224,3.831
		c2.942-0.835,6.149-1.252,9.281-1.252c3.169,0,6.338,0.417,9.319,1.252c7.093-4.855,10.187-3.831,10.187-3.831
		c2.037,5.12,0.754,8.913,0.377,9.899c2.377,2.579,3.811,5.916,3.811,10.013c0,14.564-8.979,17.598-17.355,18.47
		c1.547,1.062,3.132,3.034,3.132,6.751V71.392z"/>
</g>
</svg>
