<?xml version="1.0" encoding="utf-8"?>
<!-- Generator: Adobe Illustrator 17.0.0, SVG Export Plug-In . SVG Version: 6.00 Build 0)  -->
<!DOCTYPE svg PUBLIC "-//W3C//DTD SVG 1.1//EN" "http://www.w3.org/Graphics/SVG/1.1/DTD/svg11.dtd">
<svg version="1.1" id="Layer_1" xmlns="http://www.w3.org/2000/svg" xmlns:xlink="http://www.w3.org/1999/xlink" x="0px" y="0px"
	 width="80px" height="80px" viewBox="0 0 80 80" enable-background="new 0 0 80 80" xml:space="preserve">
<path fill="#3D3C3E" d="M66.265,1.538H13.014c-6.362,0-11.52,5.158-11.52,11.52v53.244c0,6.362,5.158,11.52,11.52,11.52h53.25
	c6.364,0,11.52-5.158,12.169-11.303V13.275C77.785,6.696,72.627,1.538,66.265,1.538z M54.354,13.697c0-1.895,1.55-3.445,3.442-3.445
	l8.65,0c1.894,0,3.444,1.55,3.444,3.445v8.245c0,1.895-1.55,3.444-3.444,3.444h-8.65c-1.893,0-3.442-1.55-3.442-3.444V13.697z
	 M40.39,24.952c8.487,0,15.367,6.667,15.367,14.889c0,8.222-6.879,14.889-15.367,14.889c-8.486,0-15.365-6.667-15.365-14.889
	C25.025,31.618,31.903,24.952,40.39,24.952z M69.926,66.425c0,1.674-1.369,3.043-3.04,3.043h-53.28c-1.674,0-3.041-1.37-3.041-3.043
	V34.107h7.025c-0.637,2.081-0.98,4.283-0.98,6.565c0,12.727,10.647,23.045,23.78,23.045c13.136,0,23.781-10.318,23.781-23.045
	c0-2.282-0.344-4.484-0.979-6.565h6.733h0.001V66.425z"/>
</svg>
