<?xml version="1.0" encoding="utf-8"?>
<!-- Generator: Adobe Illustrator 17.0.0, SVG Export Plug-In . SVG Version: 6.00 Build 0)  -->
<!DOCTYPE svg PUBLIC "-//W3C//DTD SVG 1.1//EN" "http://www.w3.org/Graphics/SVG/1.1/DTD/svg11.dtd">
<svg version="1.1" id="Layer_1" xmlns="http://www.w3.org/2000/svg" xmlns:xlink="http://www.w3.org/1999/xlink" x="0px" y="0px"
	 width="600px" height="300px" viewBox="0 0 600 300" enable-background="new 0 0 600 300" xml:space="preserve">
<g>
	<polygon fill="#656466" points="442.245,82.76 359.484,82.76 359.484,0 226.79,0 226.79,82.76 144.029,82.76 144.029,215.455 
		226.79,215.455 226.79,298.216 359.484,298.216 359.484,215.455 442.245,215.455 	"/>
</g>
<rect x="5.528" y="82.76" fill="#656466" width="593.472" height="132.695"/>
<g>
	<polygon fill="#3D3C3E" points="437.295,82.76 354.535,82.76 354.535,0 221.84,0 221.84,82.76 139.079,82.76 139.079,215.455 
		221.84,215.455 221.84,298.216 354.535,298.216 354.535,215.455 437.295,215.455 	"/>
</g>
<rect x="0.579" y="82.76" fill="#3D3C3E" width="593.472" height="132.695"/>
</svg>
