<?xml version="1.0" encoding="utf-8"?>
<!-- Generator: Adobe Illustrator 17.0.0, SVG Export Plug-In . SVG Version: 6.00 Build 0)  -->
<!DOCTYPE svg PUBLIC "-//W3C//DTD SVG 1.1//EN" "http://www.w3.org/Graphics/SVG/1.1/DTD/svg11.dtd">
<svg version="1.1" id="Layer_1" xmlns="http://www.w3.org/2000/svg" xmlns:xlink="http://www.w3.org/1999/xlink" x="0px" y="0px"
	 width="80px" height="80px" viewBox="0 0 80 80" enable-background="new 0 0 80 80" xml:space="preserve">
<path fill="#3D3C3E" d="M72.958,0.994H6.792c-3.169,0-5.738,2.507-5.738,5.597v66.94c0,3.091,2.569,5.597,5.738,5.597h66.166
	c3.169,0,5.738-2.506,5.738-5.597V6.591C78.696,3.501,76.127,0.994,72.958,0.994z M24.59,66.4H12.863V31.118H24.59V66.4z
	 M18.727,26.301L18.727,26.301H18.65c-3.935,0-6.48-2.709-6.48-6.095c0-3.462,2.623-6.096,6.634-6.096
	c4.012,0,6.481,2.634,6.557,6.096C25.361,23.592,22.816,26.301,18.727,26.301z M66.876,66.4H55.15V47.525
	c0-4.743-1.697-7.978-5.941-7.978c-3.24,0-5.169,2.182-6.017,4.289c-0.31,0.754-0.386,1.807-0.386,2.862V66.4H31.08
	c0,0,0.154-31.971,0-35.282h11.727v4.997c1.558-2.404,4.344-5.825,10.568-5.825c7.715,0,13.501,5.043,13.501,15.88V66.4z"/>
</svg>
