<?xml version="1.0" encoding="utf-8"?>
<!-- Generator: Adobe Illustrator 17.0.0, SVG Export Plug-In . SVG Version: 6.00 Build 0)  -->
<!DOCTYPE svg PUBLIC "-//W3C//DTD SVG 1.1//EN" "http://www.w3.org/Graphics/SVG/1.1/DTD/svg11.dtd">
<svg version="1.1" id="Layer_1" xmlns="http://www.w3.org/2000/svg" xmlns:xlink="http://www.w3.org/1999/xlink" x="0px" y="0px"
	 width="461px" height="160px" viewBox="0 0 461 160" enable-background="new 0 0 461 160" xml:space="preserve">
<g>
	<g>
		<path fill="#22BDAF" d="M287.333,47.293l0.147,30.769l-30.769,0.147l-0.147-30.769L287.333,47.293 M292.309,42.269l-40.769,0.195
			l0.195,40.769l40.769-0.195L292.309,42.269L292.309,42.269z"/>
	</g>
	<g>
		<path fill="#22BDAF" d="M246.759,88.257l0.147,30.769l-30.769,0.147l-0.147-30.769L246.759,88.257 M251.735,83.234l-40.769,0.195
			l0.195,40.769l40.769-0.195L251.735,83.234L251.735,83.234z"/>
	</g>
</g>
<g>
	
		<rect x="307.537" y="59.101" transform="matrix(-0.0048 -1 1 -0.0048 249.9952 402.9438)" fill="#22BDAF" width="35.94" height="35.94"/>
	
		<rect x="271.769" y="95.213" transform="matrix(-0.0048 -1 1 -0.0048 177.9449 403.4615)" fill="#22BDAF" width="35.94" height="35.94"/>
</g>
<g>
	
		<rect x="353.843" y="81.867" transform="matrix(-0.0048 -1 1 -0.0048 273.732 461.282)" fill="#22BDAF" width="25.125" height="25.125"/>
	
		<rect x="328.839" y="107.111" transform="matrix(-0.0048 -1 1 -0.0048 223.3638 461.6438)" fill="#22BDAF" width="25.125" height="25.125"/>
</g>
<g>
	
		<rect x="390.099" y="92.402" transform="matrix(-0.0048 -1 1 -0.0048 299.6191 505.1665)" fill="#BAD7D4" width="22.175" height="22.175"/>
	
		<rect x="368.03" y="114.683" transform="matrix(-0.0048 -1 1 -0.0048 255.1641 505.4858)" fill="#BAD7D4" width="22.175" height="22.175"/>
</g>
<g>
	
		<rect x="181.634" y="24.356" transform="matrix(-0.0048 -1 1 -0.0048 158.2678 255.8523)" fill="none" stroke="#22BDAF" stroke-width="7" stroke-miterlimit="10" width="49.629" height="49.629"/>
	
		<rect x="132.244" y="74.222" transform="matrix(-0.0048 -1 1 -0.0048 58.7751 256.567)" fill="none" stroke="#22BDAF" stroke-width="7" stroke-miterlimit="10" width="49.629" height="49.629"/>
</g>
<g>
	
		<rect x="111.841" y="11.086" transform="matrix(-0.0048 -1 1 -0.0048 101.407 171.4915)" fill="none" stroke="#22BDAF" stroke-width="10" stroke-miterlimit="10" width="48.397" height="48.397"/>
	
		<rect x="63.677" y="59.714" transform="matrix(-0.0048 -1 1 -0.0048 4.3847 172.1886)" fill="none" stroke="#22BDAF" stroke-width="10" stroke-miterlimit="10" width="48.397" height="48.397"/>
</g>
<g>
	<g>
		<path fill="#22BDAF" d="M84.012,11.579l0.117,24.396l-24.396,0.117l-0.117-24.396L84.012,11.579 M95.954-0.478L47.558-0.246
			L47.79,48.15l48.396-0.232L95.954-0.478L95.954-0.478z"/>
	</g>
	<g>
		<path fill="#22BDAF" d="M35.848,60.207l0.117,24.396L11.568,84.72l-0.117-24.396L35.848,60.207 M47.79,48.15l-48.396,0.232
			l0.232,48.396l48.396-0.232L47.79,48.15L47.79,48.15z"/>
	</g>
</g>
<rect x="409.9" y="123.377" transform="matrix(-0.0048 -1 1 -0.0048 303.845 570.0629)" fill="#FCFCFC" width="51.384" height="20.916"/>
<rect x="409.9" y="123.377" transform="matrix(1 -0.0048 0.0048 1 -0.636 2.0878)" fill="#FCFCFC" width="51.384" height="20.916"/>
</svg>
