<?xml version="1.0" encoding="utf-8"?>
<!-- Generator: Adobe Illustrator 17.0.0, SVG Export Plug-In . SVG Version: 6.00 Build 0)  -->
<!DOCTYPE svg PUBLIC "-//W3C//DTD SVG 1.1//EN" "http://www.w3.org/Graphics/SVG/1.1/DTD/svg11.dtd">
<svg version="1.1" id="Layer_1" xmlns="http://www.w3.org/2000/svg" xmlns:xlink="http://www.w3.org/1999/xlink" x="0px" y="0px"
	 width="40px" height="40px" viewBox="0 0 40 40" enable-background="new 0 0 40 40" xml:space="preserve">
<path fill="#3D3C3E" d="M39.98,7.608c-1.47,0.652-3.05,1.093-4.709,1.291c1.693-1.015,2.993-2.621,3.605-4.536
	c-1.584,0.939-3.338,1.622-5.206,1.989c-1.495-1.593-3.626-2.589-5.984-2.589c-4.528,0-8.198,3.671-8.198,8.198
	c0,0.643,0.072,1.268,0.212,1.868c-6.813-0.342-12.854-3.606-16.898-8.566c-0.706,1.211-1.11,2.619-1.11,4.122
	c0,2.844,1.447,5.353,3.647,6.824c-1.344-0.043-2.608-0.411-3.713-1.025c-0.001,0.034-0.001,0.069-0.001,0.103
	c0,3.972,2.826,7.286,6.576,8.039c-0.688,0.187-1.412,0.287-2.16,0.287c-0.528,0-1.042-0.051-1.542-0.147
	c1.043,3.257,4.071,5.627,7.658,5.693c-2.806,2.199-6.341,3.509-10.182,3.509c-0.662,0-1.314-0.039-1.956-0.114
	c3.628,2.326,7.937,3.683,12.567,3.683c15.079,0,23.325-12.492,23.325-23.326c0-0.355-0.008-0.709-0.024-1.061
	C37.491,10.696,38.881,9.252,39.98,7.608z"/>
</svg>
